<svg xmlns="http://www.w3.org/2000/svg" class="" style="display: block; user-select: none;" viewBox="0 0 1066 720" width="1066" height="720"><defs xmlns="http://www.w3.org/1999/xhtml"><style type="text/css">&lt;!--/*--&gt;&lt;![CDATA[/*&gt;&lt;!--*/

  /* from https://fonts.googleapis.com/css2?family=IBM+Plex+Sans&amp;display=swap */
  @font-face {
    font-family: 'IBM Plex Sans';
    font-style: normal;
    font-weight: 400;
    font-display: swap;
    src: url(https://fonts.gstatic.com/s/ibmplexsans/v14/zYXgKVElMYYaJe8bpLHnCwDKhdHeFaxOedc.woff2) format('woff2');
  }
  
  /* from https://fonts.googleapis.com/css2?family=IBM+Plex+Mono&amp;display=swap */
  @font-face {
    font-family: 'IBM Plex Mono';
    font-style: normal;
    font-weight: 400;
    font-display: swap;
    src: url(https://fonts.gstatic.com/s/ibmplexmono/v12/-F63fjptAgt5VM-kVkqdyU8n1i8q131nj-o.woff2) format('woff2');
  }    

/*]]&gt;*/--&gt;</style></defs><rect x="0" y="0" width="1066" height="720" style="fill: rgb(255, 255, 255);"/><g><g transform="translate(20, 0)"><g><g><text x="48" y="36" style="fill: rgb(111, 111, 111); font-family: IBM Plex Mono, monospace; font-weight: 400; text-anchor: end; font-size: 14px;" dy=".3em"><tspan>q[0]</tspan></text><text x="48" y="76" style="fill: rgb(111, 111, 111); font-family: IBM Plex Mono, monospace; font-weight: 400; text-anchor: end; font-size: 14px;" dy=".3em"><tspan>q[1]</tspan></text><text x="48" y="116" style="fill: rgb(111, 111, 111); font-family: IBM Plex Mono, monospace; font-weight: 400; text-anchor: end; font-size: 14px;" dy=".3em"><tspan>q[2]</tspan></text><text x="48" y="156" style="fill: rgb(111, 111, 111); font-family: IBM Plex Mono, monospace; font-weight: 400; text-anchor: end; font-size: 14px;" dy=".3em"><tspan>q[3]</tspan></text><text x="48" y="196" style="fill: rgb(111, 111, 111); font-family: IBM Plex Mono, monospace; font-weight: 400; text-anchor: end; font-size: 14px;" dy=".3em"><tspan>q[4]</tspan></text><text x="48" y="236" style="fill: rgb(111, 111, 111); font-family: IBM Plex Mono, monospace; font-weight: 400; text-anchor: end; font-size: 14px;" dy=".3em"><tspan>q[5]</tspan></text><text x="48" y="276" style="fill: rgb(111, 111, 111); font-family: IBM Plex Mono, monospace; font-weight: 400; text-anchor: end; font-size: 14px;" dy=".3em"><tspan>q[6]</tspan></text><text x="48" y="316" style="fill: rgb(111, 111, 111); font-family: IBM Plex Mono, monospace; font-weight: 400; text-anchor: end; font-size: 14px;" dy=".3em"><tspan>q[7]</tspan></text><text x="48" y="356" style="fill: rgb(111, 111, 111); font-family: IBM Plex Mono, monospace; font-weight: 400; text-anchor: end; font-size: 14px;" dy=".3em"><tspan>q[8]</tspan></text><text x="48" y="396" style="fill: rgb(111, 111, 111); font-family: IBM Plex Mono, monospace; font-weight: 400; text-anchor: end; font-size: 14px;" dy=".3em"><tspan>q[9]</tspan></text><text x="48" y="436" style="fill: rgb(111, 111, 111); font-family: IBM Plex Mono, monospace; font-weight: 400; text-anchor: end; font-size: 14px;" dy=".3em"><tspan>q[10]</tspan></text><text x="48" y="476" style="fill: rgb(111, 111, 111); font-family: IBM Plex Mono, monospace; font-weight: 400; text-anchor: end; font-size: 14px;" dy=".3em"><tspan>q[11]</tspan></text><text x="48" y="516" style="fill: rgb(111, 111, 111); font-family: IBM Plex Mono, monospace; font-weight: 400; text-anchor: end; font-size: 14px;" dy=".3em"><tspan>q[12]</tspan></text><text x="48" y="556" style="fill: rgb(111, 111, 111); font-family: IBM Plex Mono, monospace; font-weight: 400; text-anchor: end; font-size: 14px;" dy=".3em"><tspan>q[13]</tspan></text><text x="48" y="596" style="fill: rgb(111, 111, 111); font-family: IBM Plex Mono, monospace; font-weight: 400; text-anchor: end; font-size: 14px;" dy=".3em"><tspan>q[14]</tspan></text><text x="48" y="636" style="fill: rgb(111, 111, 111); font-family: IBM Plex Mono, monospace; font-weight: 400; text-anchor: end; font-size: 14px;" dy=".3em"><tspan>q[15]</tspan></text><text x="48" y="676" style="fill: rgb(111, 111, 111); font-family: IBM Plex Mono, monospace; font-weight: 400; text-anchor: end; font-size: 14px;" dy=".3em"><tspan>q[16]</tspan></text></g><g/></g></g><g><g><line x1="78" x2="1046" y1="36" y2="36" style="fill: none; stroke: rgb(224, 224, 224); stroke-width: 1px; stroke-linecap: round;"/><line x1="78" x2="1046" y1="76" y2="76" style="fill: none; stroke: rgb(224, 224, 224); stroke-width: 1px; stroke-linecap: round;"/><line x1="78" x2="1046" y1="116" y2="116" style="fill: none; stroke: rgb(224, 224, 224); stroke-width: 1px; stroke-linecap: round;"/><line x1="78" x2="1046" y1="156" y2="156" style="fill: none; stroke: rgb(224, 224, 224); stroke-width: 1px; stroke-linecap: round;"/><line x1="78" x2="1046" y1="196" y2="196" style="fill: none; stroke: rgb(224, 224, 224); stroke-width: 1px; stroke-linecap: round;"/><line x1="78" x2="1046" y1="236" y2="236" style="fill: none; stroke: rgb(224, 224, 224); stroke-width: 1px; stroke-linecap: round;"/><line x1="78" x2="1046" y1="276" y2="276" style="fill: none; stroke: rgb(224, 224, 224); stroke-width: 1px; stroke-linecap: round;"/><line x1="78" x2="1046" y1="316" y2="316" style="fill: none; stroke: rgb(224, 224, 224); stroke-width: 1px; stroke-linecap: round;"/><line x1="78" x2="1046" y1="356" y2="356" style="fill: none; stroke: rgb(224, 224, 224); stroke-width: 1px; stroke-linecap: round;"/><line x1="78" x2="1046" y1="396" y2="396" style="fill: none; stroke: rgb(224, 224, 224); stroke-width: 1px; stroke-linecap: round;"/><line x1="78" x2="1046" y1="436" y2="436" style="fill: none; stroke: rgb(224, 224, 224); stroke-width: 1px; stroke-linecap: round;"/><line x1="78" x2="1046" y1="476" y2="476" style="fill: none; stroke: rgb(224, 224, 224); stroke-width: 1px; stroke-linecap: round;"/><line x1="78" x2="1046" y1="516" y2="516" style="fill: none; stroke: rgb(224, 224, 224); stroke-width: 1px; stroke-linecap: round;"/><line x1="78" x2="1046" y1="556" y2="556" style="fill: none; stroke: rgb(224, 224, 224); stroke-width: 1px; stroke-linecap: round;"/><line x1="78" x2="1046" y1="596" y2="596" style="fill: none; stroke: rgb(224, 224, 224); stroke-width: 1px; stroke-linecap: round;"/><line x1="78" x2="1046" y1="636" y2="636" style="fill: none; stroke: rgb(224, 224, 224); stroke-width: 1px; stroke-linecap: round;"/><line x1="78" x2="1046" y1="676" y2="676" style="fill: none; stroke: rgb(224, 224, 224); stroke-width: 1px; stroke-linecap: round;"/></g></g><line x1="102" y1="76" x2="102" y2="156" style="stroke-width: 1px; stroke: rgb(0, 45, 156);"/><circle r="4" cx="102" cy="76" style="fill: rgb(0, 45, 156);"/><circle r="4" cx="102" cy="116" style="fill: rgb(0, 45, 156);"/><g transform="translate(102, 156)"><g><circle cx="0" cy="0" r="16" style="fill: rgb(0, 45, 156); stroke-width: 0px; stroke: transparent; paint-order: stroke;"/><line x1="0" y1="-8" x2="0" y2="8" style="stroke-width: 1.25px; stroke: rgb(255, 255, 255);"/><line x1="8" y1="0" x2="-8" y2="0" style="stroke-width: 1.25px; stroke: rgb(255, 255, 255);"/></g></g><line x1="142" y1="76" x2="142" y2="116" style="stroke-width: 1px; stroke: rgb(0, 45, 156);"/><circle r="4" cx="142" cy="116" style="fill: rgb(0, 45, 156);"/><g transform="translate(142, 76)"><g><circle cx="0" cy="0" r="16" style="fill: rgb(0, 45, 156); stroke-width: 0px; stroke: transparent; paint-order: stroke;"/><line x1="0" y1="-8" x2="0" y2="8" style="stroke-width: 1.25px; stroke: rgb(255, 255, 255);"/><line x1="8" y1="0" x2="-8" y2="0" style="stroke-width: 1.25px; stroke: rgb(255, 255, 255);"/></g></g><line x1="182" y1="36" x2="182" y2="156" style="stroke-width: 1px; stroke: rgb(0, 45, 156);"/><circle r="4" cx="182" cy="36" style="fill: rgb(0, 45, 156);"/><circle r="4" cx="182" cy="76" style="fill: rgb(0, 45, 156);"/><g transform="translate(182, 156)"><g><circle cx="0" cy="0" r="16" style="fill: rgb(0, 45, 156); stroke-width: 0px; stroke: transparent; paint-order: stroke;"/><line x1="0" y1="-8" x2="0" y2="8" style="stroke-width: 1.25px; stroke: rgb(255, 255, 255);"/><line x1="8" y1="0" x2="-8" y2="0" style="stroke-width: 1.25px; stroke: rgb(255, 255, 255);"/></g></g><line x1="222" y1="36" x2="222" y2="76" style="stroke-width: 1px; stroke: rgb(0, 45, 156);"/><circle r="4" cx="222" cy="36" style="fill: rgb(0, 45, 156);"/><g transform="translate(222, 76)"><g><circle cx="0" cy="0" r="16" style="fill: rgb(0, 45, 156); stroke-width: 0px; stroke: transparent; paint-order: stroke;"/><line x1="0" y1="-8" x2="0" y2="8" style="stroke-width: 1.25px; stroke: rgb(255, 255, 255);"/><line x1="8" y1="0" x2="-8" y2="0" style="stroke-width: 1.25px; stroke: rgb(255, 255, 255);"/></g></g><g transform="translate(262, 36)"><line x1="0" y1="-16" x2="0" y2="-2" style="stroke-width: 1px; stroke: rgb(22, 22, 22);"/><line x1="0" y1="2" x2="0" y2="16" style="stroke-width: 1px; stroke: rgb(22, 22, 22);"/></g><g transform="translate(262, 76)"><line x1="0" y1="-16" x2="0" y2="-2" style="stroke-width: 1px; stroke: rgb(22, 22, 22);"/><line x1="0" y1="2" x2="0" y2="16" style="stroke-width: 1px; stroke: rgb(22, 22, 22);"/></g><g transform="translate(262, 116)"><line x1="0" y1="-16" x2="0" y2="-2" style="stroke-width: 1px; stroke: rgb(22, 22, 22);"/><line x1="0" y1="2" x2="0" y2="16" style="stroke-width: 1px; stroke: rgb(22, 22, 22);"/></g><g transform="translate(262, 156)"><line x1="0" y1="-16" x2="0" y2="-2" style="stroke-width: 1px; stroke: rgb(22, 22, 22);"/><line x1="0" y1="2" x2="0" y2="16" style="stroke-width: 1px; stroke: rgb(22, 22, 22);"/></g><g transform="translate(262, 196)"><line x1="0" y1="-16" x2="0" y2="-2" style="stroke-width: 1px; stroke: rgb(22, 22, 22);"/><line x1="0" y1="2" x2="0" y2="16" style="stroke-width: 1px; stroke: rgb(22, 22, 22);"/></g><g transform="translate(262, 236)"><line x1="0" y1="-16" x2="0" y2="-2" style="stroke-width: 1px; stroke: rgb(22, 22, 22);"/><line x1="0" y1="2" x2="0" y2="16" style="stroke-width: 1px; stroke: rgb(22, 22, 22);"/></g><g transform="translate(262, 276)"><line x1="0" y1="-16" x2="0" y2="-2" style="stroke-width: 1px; stroke: rgb(22, 22, 22);"/><line x1="0" y1="2" x2="0" y2="16" style="stroke-width: 1px; stroke: rgb(22, 22, 22);"/></g><g transform="translate(262, 316)"><line x1="0" y1="-16" x2="0" y2="-2" style="stroke-width: 1px; stroke: rgb(22, 22, 22);"/><line x1="0" y1="2" x2="0" y2="16" style="stroke-width: 1px; stroke: rgb(22, 22, 22);"/></g><g transform="translate(262, 356)"><line x1="0" y1="-16" x2="0" y2="-2" style="stroke-width: 1px; stroke: rgb(22, 22, 22);"/><line x1="0" y1="2" x2="0" y2="16" style="stroke-width: 1px; stroke: rgb(22, 22, 22);"/></g><g transform="translate(262, 396)"><line x1="0" y1="-16" x2="0" y2="-2" style="stroke-width: 1px; stroke: rgb(22, 22, 22);"/><line x1="0" y1="2" x2="0" y2="16" style="stroke-width: 1px; stroke: rgb(22, 22, 22);"/></g><g transform="translate(262, 436)"><line x1="0" y1="-16" x2="0" y2="-2" style="stroke-width: 1px; stroke: rgb(22, 22, 22);"/><line x1="0" y1="2" x2="0" y2="16" style="stroke-width: 1px; stroke: rgb(22, 22, 22);"/></g><g transform="translate(262, 476)"><line x1="0" y1="-16" x2="0" y2="-2" style="stroke-width: 1px; stroke: rgb(22, 22, 22);"/><line x1="0" y1="2" x2="0" y2="16" style="stroke-width: 1px; stroke: rgb(22, 22, 22);"/></g><g transform="translate(262, 516)"><line x1="0" y1="-16" x2="0" y2="-2" style="stroke-width: 1px; stroke: rgb(22, 22, 22);"/><line x1="0" y1="2" x2="0" y2="16" style="stroke-width: 1px; stroke: rgb(22, 22, 22);"/></g><g transform="translate(262, 556)"><line x1="0" y1="-16" x2="0" y2="-2" style="stroke-width: 1px; stroke: rgb(22, 22, 22);"/><line x1="0" y1="2" x2="0" y2="16" style="stroke-width: 1px; stroke: rgb(22, 22, 22);"/></g><g transform="translate(262, 596)"><line x1="0" y1="-16" x2="0" y2="-2" style="stroke-width: 1px; stroke: rgb(22, 22, 22);"/><line x1="0" y1="2" x2="0" y2="16" style="stroke-width: 1px; stroke: rgb(22, 22, 22);"/></g><g transform="translate(262, 636)"><line x1="0" y1="-16" x2="0" y2="-2" style="stroke-width: 1px; stroke: rgb(22, 22, 22);"/><line x1="0" y1="2" x2="0" y2="16" style="stroke-width: 1px; stroke: rgb(22, 22, 22);"/></g><g transform="translate(262, 676)"><line x1="0" y1="-16" x2="0" y2="-2" style="stroke-width: 1px; stroke: rgb(22, 22, 22);"/><line x1="0" y1="2" x2="0" y2="16" style="stroke-width: 1px; stroke: rgb(22, 22, 22);"/></g><line x1="302" y1="156" x2="302" y2="276" style="stroke-width: 1px; stroke: rgb(0, 45, 156);"/><circle r="4" cx="302" cy="156" style="fill: rgb(0, 45, 156);"/><circle r="4" cx="302" cy="236" style="fill: rgb(0, 45, 156);"/><g transform="translate(302, 276)"><g><circle cx="0" cy="0" r="16" style="fill: rgb(0, 45, 156); stroke-width: 0px; stroke: transparent; paint-order: stroke;"/><line x1="0" y1="-8" x2="0" y2="8" style="stroke-width: 1.25px; stroke: rgb(255, 255, 255);"/><line x1="8" y1="0" x2="-8" y2="0" style="stroke-width: 1.25px; stroke: rgb(255, 255, 255);"/></g></g><line x1="342" y1="156" x2="342" y2="236" style="stroke-width: 1px; stroke: rgb(0, 45, 156);"/><circle r="4" cx="342" cy="236" style="fill: rgb(0, 45, 156);"/><g transform="translate(342, 156)"><g><circle cx="0" cy="0" r="16" style="fill: rgb(0, 45, 156); stroke-width: 0px; stroke: transparent; paint-order: stroke;"/><line x1="0" y1="-8" x2="0" y2="8" style="stroke-width: 1.25px; stroke: rgb(255, 255, 255);"/><line x1="8" y1="0" x2="-8" y2="0" style="stroke-width: 1.25px; stroke: rgb(255, 255, 255);"/></g></g><line x1="382" y1="156" x2="382" y2="276" style="stroke-width: 1px; stroke: rgb(0, 45, 156);"/><circle r="4" cx="382" cy="156" style="fill: rgb(0, 45, 156);"/><circle r="4" cx="382" cy="196" style="fill: rgb(0, 45, 156);"/><g transform="translate(382, 276)"><g><circle cx="0" cy="0" r="16" style="fill: rgb(0, 45, 156); stroke-width: 0px; stroke: transparent; paint-order: stroke;"/><line x1="0" y1="-8" x2="0" y2="8" style="stroke-width: 1.25px; stroke: rgb(255, 255, 255);"/><line x1="8" y1="0" x2="-8" y2="0" style="stroke-width: 1.25px; stroke: rgb(255, 255, 255);"/></g></g><line x1="422" y1="156" x2="422" y2="196" style="stroke-width: 1px; stroke: rgb(0, 45, 156);"/><circle r="4" cx="422" cy="196" style="fill: rgb(0, 45, 156);"/><g transform="translate(422, 156)"><g><circle cx="0" cy="0" r="16" style="fill: rgb(0, 45, 156); stroke-width: 0px; stroke: transparent; paint-order: stroke;"/><line x1="0" y1="-8" x2="0" y2="8" style="stroke-width: 1.25px; stroke: rgb(255, 255, 255);"/><line x1="8" y1="0" x2="-8" y2="0" style="stroke-width: 1.25px; stroke: rgb(255, 255, 255);"/></g></g><g transform="translate(462, 36)"><line x1="0" y1="-16" x2="0" y2="-2" style="stroke-width: 1px; stroke: rgb(22, 22, 22);"/><line x1="0" y1="2" x2="0" y2="16" style="stroke-width: 1px; stroke: rgb(22, 22, 22);"/></g><g transform="translate(462, 76)"><line x1="0" y1="-16" x2="0" y2="-2" style="stroke-width: 1px; stroke: rgb(22, 22, 22);"/><line x1="0" y1="2" x2="0" y2="16" style="stroke-width: 1px; stroke: rgb(22, 22, 22);"/></g><g transform="translate(462, 116)"><line x1="0" y1="-16" x2="0" y2="-2" style="stroke-width: 1px; stroke: rgb(22, 22, 22);"/><line x1="0" y1="2" x2="0" y2="16" style="stroke-width: 1px; stroke: rgb(22, 22, 22);"/></g><g transform="translate(462, 156)"><line x1="0" y1="-16" x2="0" y2="-2" style="stroke-width: 1px; stroke: rgb(22, 22, 22);"/><line x1="0" y1="2" x2="0" y2="16" style="stroke-width: 1px; stroke: rgb(22, 22, 22);"/></g><g transform="translate(462, 196)"><line x1="0" y1="-16" x2="0" y2="-2" style="stroke-width: 1px; stroke: rgb(22, 22, 22);"/><line x1="0" y1="2" x2="0" y2="16" style="stroke-width: 1px; stroke: rgb(22, 22, 22);"/></g><g transform="translate(462, 236)"><line x1="0" y1="-16" x2="0" y2="-2" style="stroke-width: 1px; stroke: rgb(22, 22, 22);"/><line x1="0" y1="2" x2="0" y2="16" style="stroke-width: 1px; stroke: rgb(22, 22, 22);"/></g><g transform="translate(462, 276)"><line x1="0" y1="-16" x2="0" y2="-2" style="stroke-width: 1px; stroke: rgb(22, 22, 22);"/><line x1="0" y1="2" x2="0" y2="16" style="stroke-width: 1px; stroke: rgb(22, 22, 22);"/></g><g transform="translate(462, 316)"><line x1="0" y1="-16" x2="0" y2="-2" style="stroke-width: 1px; stroke: rgb(22, 22, 22);"/><line x1="0" y1="2" x2="0" y2="16" style="stroke-width: 1px; stroke: rgb(22, 22, 22);"/></g><g transform="translate(462, 356)"><line x1="0" y1="-16" x2="0" y2="-2" style="stroke-width: 1px; stroke: rgb(22, 22, 22);"/><line x1="0" y1="2" x2="0" y2="16" style="stroke-width: 1px; stroke: rgb(22, 22, 22);"/></g><g transform="translate(462, 396)"><line x1="0" y1="-16" x2="0" y2="-2" style="stroke-width: 1px; stroke: rgb(22, 22, 22);"/><line x1="0" y1="2" x2="0" y2="16" style="stroke-width: 1px; stroke: rgb(22, 22, 22);"/></g><g transform="translate(462, 436)"><line x1="0" y1="-16" x2="0" y2="-2" style="stroke-width: 1px; stroke: rgb(22, 22, 22);"/><line x1="0" y1="2" x2="0" y2="16" style="stroke-width: 1px; stroke: rgb(22, 22, 22);"/></g><g transform="translate(462, 476)"><line x1="0" y1="-16" x2="0" y2="-2" style="stroke-width: 1px; stroke: rgb(22, 22, 22);"/><line x1="0" y1="2" x2="0" y2="16" style="stroke-width: 1px; stroke: rgb(22, 22, 22);"/></g><g transform="translate(462, 516)"><line x1="0" y1="-16" x2="0" y2="-2" style="stroke-width: 1px; stroke: rgb(22, 22, 22);"/><line x1="0" y1="2" x2="0" y2="16" style="stroke-width: 1px; stroke: rgb(22, 22, 22);"/></g><g transform="translate(462, 556)"><line x1="0" y1="-16" x2="0" y2="-2" style="stroke-width: 1px; stroke: rgb(22, 22, 22);"/><line x1="0" y1="2" x2="0" y2="16" style="stroke-width: 1px; stroke: rgb(22, 22, 22);"/></g><g transform="translate(462, 596)"><line x1="0" y1="-16" x2="0" y2="-2" style="stroke-width: 1px; stroke: rgb(22, 22, 22);"/><line x1="0" y1="2" x2="0" y2="16" style="stroke-width: 1px; stroke: rgb(22, 22, 22);"/></g><g transform="translate(462, 636)"><line x1="0" y1="-16" x2="0" y2="-2" style="stroke-width: 1px; stroke: rgb(22, 22, 22);"/><line x1="0" y1="2" x2="0" y2="16" style="stroke-width: 1px; stroke: rgb(22, 22, 22);"/></g><g transform="translate(462, 676)"><line x1="0" y1="-16" x2="0" y2="-2" style="stroke-width: 1px; stroke: rgb(22, 22, 22);"/><line x1="0" y1="2" x2="0" y2="16" style="stroke-width: 1px; stroke: rgb(22, 22, 22);"/></g><line x1="502" y1="276" x2="502" y2="396" style="stroke-width: 1px; stroke: rgb(0, 45, 156);"/><circle r="4" cx="502" cy="276" style="fill: rgb(0, 45, 156);"/><circle r="4" cx="502" cy="356" style="fill: rgb(0, 45, 156);"/><g transform="translate(502, 396)"><g><circle cx="0" cy="0" r="16" style="fill: rgb(0, 45, 156); stroke-width: 0px; stroke: transparent; paint-order: stroke;"/><line x1="0" y1="-8" x2="0" y2="8" style="stroke-width: 1.25px; stroke: rgb(255, 255, 255);"/><line x1="8" y1="0" x2="-8" y2="0" style="stroke-width: 1.25px; stroke: rgb(255, 255, 255);"/></g></g><line x1="542" y1="276" x2="542" y2="356" style="stroke-width: 1px; stroke: rgb(0, 45, 156);"/><circle r="4" cx="542" cy="356" style="fill: rgb(0, 45, 156);"/><g transform="translate(542, 276)"><g><circle cx="0" cy="0" r="16" style="fill: rgb(0, 45, 156); stroke-width: 0px; stroke: transparent; paint-order: stroke;"/><line x1="0" y1="-8" x2="0" y2="8" style="stroke-width: 1.25px; stroke: rgb(255, 255, 255);"/><line x1="8" y1="0" x2="-8" y2="0" style="stroke-width: 1.25px; stroke: rgb(255, 255, 255);"/></g></g><line x1="582" y1="276" x2="582" y2="396" style="stroke-width: 1px; stroke: rgb(0, 45, 156);"/><circle r="4" cx="582" cy="276" style="fill: rgb(0, 45, 156);"/><circle r="4" cx="582" cy="316" style="fill: rgb(0, 45, 156);"/><g transform="translate(582, 396)"><g><circle cx="0" cy="0" r="16" style="fill: rgb(0, 45, 156); stroke-width: 0px; stroke: transparent; paint-order: stroke;"/><line x1="0" y1="-8" x2="0" y2="8" style="stroke-width: 1.25px; stroke: rgb(255, 255, 255);"/><line x1="8" y1="0" x2="-8" y2="0" style="stroke-width: 1.25px; stroke: rgb(255, 255, 255);"/></g></g><line x1="622" y1="276" x2="622" y2="316" style="stroke-width: 1px; stroke: rgb(0, 45, 156);"/><circle r="4" cx="622" cy="316" style="fill: rgb(0, 45, 156);"/><g transform="translate(622, 276)"><g><circle cx="0" cy="0" r="16" style="fill: rgb(0, 45, 156); stroke-width: 0px; stroke: transparent; paint-order: stroke;"/><line x1="0" y1="-8" x2="0" y2="8" style="stroke-width: 1.25px; stroke: rgb(255, 255, 255);"/><line x1="8" y1="0" x2="-8" y2="0" style="stroke-width: 1.25px; stroke: rgb(255, 255, 255);"/></g></g><g transform="translate(662, 36)"><line x1="0" y1="-16" x2="0" y2="-2" style="stroke-width: 1px; stroke: rgb(22, 22, 22);"/><line x1="0" y1="2" x2="0" y2="16" style="stroke-width: 1px; stroke: rgb(22, 22, 22);"/></g><g transform="translate(662, 76)"><line x1="0" y1="-16" x2="0" y2="-2" style="stroke-width: 1px; stroke: rgb(22, 22, 22);"/><line x1="0" y1="2" x2="0" y2="16" style="stroke-width: 1px; stroke: rgb(22, 22, 22);"/></g><g transform="translate(662, 116)"><line x1="0" y1="-16" x2="0" y2="-2" style="stroke-width: 1px; stroke: rgb(22, 22, 22);"/><line x1="0" y1="2" x2="0" y2="16" style="stroke-width: 1px; stroke: rgb(22, 22, 22);"/></g><g transform="translate(662, 156)"><line x1="0" y1="-16" x2="0" y2="-2" style="stroke-width: 1px; stroke: rgb(22, 22, 22);"/><line x1="0" y1="2" x2="0" y2="16" style="stroke-width: 1px; stroke: rgb(22, 22, 22);"/></g><g transform="translate(662, 196)"><line x1="0" y1="-16" x2="0" y2="-2" style="stroke-width: 1px; stroke: rgb(22, 22, 22);"/><line x1="0" y1="2" x2="0" y2="16" style="stroke-width: 1px; stroke: rgb(22, 22, 22);"/></g><g transform="translate(662, 236)"><line x1="0" y1="-16" x2="0" y2="-2" style="stroke-width: 1px; stroke: rgb(22, 22, 22);"/><line x1="0" y1="2" x2="0" y2="16" style="stroke-width: 1px; stroke: rgb(22, 22, 22);"/></g><g transform="translate(662, 276)"><line x1="0" y1="-16" x2="0" y2="-2" style="stroke-width: 1px; stroke: rgb(22, 22, 22);"/><line x1="0" y1="2" x2="0" y2="16" style="stroke-width: 1px; stroke: rgb(22, 22, 22);"/></g><g transform="translate(662, 316)"><line x1="0" y1="-16" x2="0" y2="-2" style="stroke-width: 1px; stroke: rgb(22, 22, 22);"/><line x1="0" y1="2" x2="0" y2="16" style="stroke-width: 1px; stroke: rgb(22, 22, 22);"/></g><g transform="translate(662, 356)"><line x1="0" y1="-16" x2="0" y2="-2" style="stroke-width: 1px; stroke: rgb(22, 22, 22);"/><line x1="0" y1="2" x2="0" y2="16" style="stroke-width: 1px; stroke: rgb(22, 22, 22);"/></g><g transform="translate(662, 396)"><line x1="0" y1="-16" x2="0" y2="-2" style="stroke-width: 1px; stroke: rgb(22, 22, 22);"/><line x1="0" y1="2" x2="0" y2="16" style="stroke-width: 1px; stroke: rgb(22, 22, 22);"/></g><g transform="translate(662, 436)"><line x1="0" y1="-16" x2="0" y2="-2" style="stroke-width: 1px; stroke: rgb(22, 22, 22);"/><line x1="0" y1="2" x2="0" y2="16" style="stroke-width: 1px; stroke: rgb(22, 22, 22);"/></g><g transform="translate(662, 476)"><line x1="0" y1="-16" x2="0" y2="-2" style="stroke-width: 1px; stroke: rgb(22, 22, 22);"/><line x1="0" y1="2" x2="0" y2="16" style="stroke-width: 1px; stroke: rgb(22, 22, 22);"/></g><g transform="translate(662, 516)"><line x1="0" y1="-16" x2="0" y2="-2" style="stroke-width: 1px; stroke: rgb(22, 22, 22);"/><line x1="0" y1="2" x2="0" y2="16" style="stroke-width: 1px; stroke: rgb(22, 22, 22);"/></g><g transform="translate(662, 556)"><line x1="0" y1="-16" x2="0" y2="-2" style="stroke-width: 1px; stroke: rgb(22, 22, 22);"/><line x1="0" y1="2" x2="0" y2="16" style="stroke-width: 1px; stroke: rgb(22, 22, 22);"/></g><g transform="translate(662, 596)"><line x1="0" y1="-16" x2="0" y2="-2" style="stroke-width: 1px; stroke: rgb(22, 22, 22);"/><line x1="0" y1="2" x2="0" y2="16" style="stroke-width: 1px; stroke: rgb(22, 22, 22);"/></g><g transform="translate(662, 636)"><line x1="0" y1="-16" x2="0" y2="-2" style="stroke-width: 1px; stroke: rgb(22, 22, 22);"/><line x1="0" y1="2" x2="0" y2="16" style="stroke-width: 1px; stroke: rgb(22, 22, 22);"/></g><g transform="translate(662, 676)"><line x1="0" y1="-16" x2="0" y2="-2" style="stroke-width: 1px; stroke: rgb(22, 22, 22);"/><line x1="0" y1="2" x2="0" y2="16" style="stroke-width: 1px; stroke: rgb(22, 22, 22);"/></g><line x1="702" y1="396" x2="702" y2="516" style="stroke-width: 1px; stroke: rgb(0, 45, 156);"/><circle r="4" cx="702" cy="396" style="fill: rgb(0, 45, 156);"/><circle r="4" cx="702" cy="476" style="fill: rgb(0, 45, 156);"/><g transform="translate(702, 516)"><g><circle cx="0" cy="0" r="16" style="fill: rgb(0, 45, 156); stroke-width: 0px; stroke: transparent; paint-order: stroke;"/><line x1="0" y1="-8" x2="0" y2="8" style="stroke-width: 1.25px; stroke: rgb(255, 255, 255);"/><line x1="8" y1="0" x2="-8" y2="0" style="stroke-width: 1.25px; stroke: rgb(255, 255, 255);"/></g></g><line x1="742" y1="396" x2="742" y2="476" style="stroke-width: 1px; stroke: rgb(0, 45, 156);"/><circle r="4" cx="742" cy="476" style="fill: rgb(0, 45, 156);"/><g transform="translate(742, 396)"><g><circle cx="0" cy="0" r="16" style="fill: rgb(0, 45, 156); stroke-width: 0px; stroke: transparent; paint-order: stroke;"/><line x1="0" y1="-8" x2="0" y2="8" style="stroke-width: 1.25px; stroke: rgb(255, 255, 255);"/><line x1="8" y1="0" x2="-8" y2="0" style="stroke-width: 1.25px; stroke: rgb(255, 255, 255);"/></g></g><line x1="782" y1="396" x2="782" y2="516" style="stroke-width: 1px; stroke: rgb(0, 45, 156);"/><circle r="4" cx="782" cy="396" style="fill: rgb(0, 45, 156);"/><circle r="4" cx="782" cy="436" style="fill: rgb(0, 45, 156);"/><g transform="translate(782, 516)"><g><circle cx="0" cy="0" r="16" style="fill: rgb(0, 45, 156); stroke-width: 0px; stroke: transparent; paint-order: stroke;"/><line x1="0" y1="-8" x2="0" y2="8" style="stroke-width: 1.25px; stroke: rgb(255, 255, 255);"/><line x1="8" y1="0" x2="-8" y2="0" style="stroke-width: 1.25px; stroke: rgb(255, 255, 255);"/></g></g><line x1="822" y1="396" x2="822" y2="436" style="stroke-width: 1px; stroke: rgb(0, 45, 156);"/><circle r="4" cx="822" cy="436" style="fill: rgb(0, 45, 156);"/><g transform="translate(822, 396)"><g><circle cx="0" cy="0" r="16" style="fill: rgb(0, 45, 156); stroke-width: 0px; stroke: transparent; paint-order: stroke;"/><line x1="0" y1="-8" x2="0" y2="8" style="stroke-width: 1.25px; stroke: rgb(255, 255, 255);"/><line x1="8" y1="0" x2="-8" y2="0" style="stroke-width: 1.25px; stroke: rgb(255, 255, 255);"/></g></g><g transform="translate(862, 36)"><line x1="0" y1="-16" x2="0" y2="-2" style="stroke-width: 1px; stroke: rgb(22, 22, 22);"/><line x1="0" y1="2" x2="0" y2="16" style="stroke-width: 1px; stroke: rgb(22, 22, 22);"/></g><g transform="translate(862, 76)"><line x1="0" y1="-16" x2="0" y2="-2" style="stroke-width: 1px; stroke: rgb(22, 22, 22);"/><line x1="0" y1="2" x2="0" y2="16" style="stroke-width: 1px; stroke: rgb(22, 22, 22);"/></g><g transform="translate(862, 116)"><line x1="0" y1="-16" x2="0" y2="-2" style="stroke-width: 1px; stroke: rgb(22, 22, 22);"/><line x1="0" y1="2" x2="0" y2="16" style="stroke-width: 1px; stroke: rgb(22, 22, 22);"/></g><g transform="translate(862, 156)"><line x1="0" y1="-16" x2="0" y2="-2" style="stroke-width: 1px; stroke: rgb(22, 22, 22);"/><line x1="0" y1="2" x2="0" y2="16" style="stroke-width: 1px; stroke: rgb(22, 22, 22);"/></g><g transform="translate(862, 196)"><line x1="0" y1="-16" x2="0" y2="-2" style="stroke-width: 1px; stroke: rgb(22, 22, 22);"/><line x1="0" y1="2" x2="0" y2="16" style="stroke-width: 1px; stroke: rgb(22, 22, 22);"/></g><g transform="translate(862, 236)"><line x1="0" y1="-16" x2="0" y2="-2" style="stroke-width: 1px; stroke: rgb(22, 22, 22);"/><line x1="0" y1="2" x2="0" y2="16" style="stroke-width: 1px; stroke: rgb(22, 22, 22);"/></g><g transform="translate(862, 276)"><line x1="0" y1="-16" x2="0" y2="-2" style="stroke-width: 1px; stroke: rgb(22, 22, 22);"/><line x1="0" y1="2" x2="0" y2="16" style="stroke-width: 1px; stroke: rgb(22, 22, 22);"/></g><g transform="translate(862, 316)"><line x1="0" y1="-16" x2="0" y2="-2" style="stroke-width: 1px; stroke: rgb(22, 22, 22);"/><line x1="0" y1="2" x2="0" y2="16" style="stroke-width: 1px; stroke: rgb(22, 22, 22);"/></g><g transform="translate(862, 356)"><line x1="0" y1="-16" x2="0" y2="-2" style="stroke-width: 1px; stroke: rgb(22, 22, 22);"/><line x1="0" y1="2" x2="0" y2="16" style="stroke-width: 1px; stroke: rgb(22, 22, 22);"/></g><g transform="translate(862, 396)"><line x1="0" y1="-16" x2="0" y2="-2" style="stroke-width: 1px; stroke: rgb(22, 22, 22);"/><line x1="0" y1="2" x2="0" y2="16" style="stroke-width: 1px; stroke: rgb(22, 22, 22);"/></g><g transform="translate(862, 436)"><line x1="0" y1="-16" x2="0" y2="-2" style="stroke-width: 1px; stroke: rgb(22, 22, 22);"/><line x1="0" y1="2" x2="0" y2="16" style="stroke-width: 1px; stroke: rgb(22, 22, 22);"/></g><g transform="translate(862, 476)"><line x1="0" y1="-16" x2="0" y2="-2" style="stroke-width: 1px; stroke: rgb(22, 22, 22);"/><line x1="0" y1="2" x2="0" y2="16" style="stroke-width: 1px; stroke: rgb(22, 22, 22);"/></g><g transform="translate(862, 516)"><line x1="0" y1="-16" x2="0" y2="-2" style="stroke-width: 1px; stroke: rgb(22, 22, 22);"/><line x1="0" y1="2" x2="0" y2="16" style="stroke-width: 1px; stroke: rgb(22, 22, 22);"/></g><g transform="translate(862, 556)"><line x1="0" y1="-16" x2="0" y2="-2" style="stroke-width: 1px; stroke: rgb(22, 22, 22);"/><line x1="0" y1="2" x2="0" y2="16" style="stroke-width: 1px; stroke: rgb(22, 22, 22);"/></g><g transform="translate(862, 596)"><line x1="0" y1="-16" x2="0" y2="-2" style="stroke-width: 1px; stroke: rgb(22, 22, 22);"/><line x1="0" y1="2" x2="0" y2="16" style="stroke-width: 1px; stroke: rgb(22, 22, 22);"/></g><g transform="translate(862, 636)"><line x1="0" y1="-16" x2="0" y2="-2" style="stroke-width: 1px; stroke: rgb(22, 22, 22);"/><line x1="0" y1="2" x2="0" y2="16" style="stroke-width: 1px; stroke: rgb(22, 22, 22);"/></g><g transform="translate(862, 676)"><line x1="0" y1="-16" x2="0" y2="-2" style="stroke-width: 1px; stroke: rgb(22, 22, 22);"/><line x1="0" y1="2" x2="0" y2="16" style="stroke-width: 1px; stroke: rgb(22, 22, 22);"/></g><line x1="902" y1="516" x2="902" y2="636" style="stroke-width: 1px; stroke: rgb(0, 45, 156);"/><circle r="4" cx="902" cy="516" style="fill: rgb(0, 45, 156);"/><circle r="4" cx="902" cy="596" style="fill: rgb(0, 45, 156);"/><g transform="translate(902, 636)"><g><circle cx="0" cy="0" r="16" style="fill: rgb(0, 45, 156); stroke-width: 0px; stroke: transparent; paint-order: stroke;"/><line x1="0" y1="-8" x2="0" y2="8" style="stroke-width: 1.25px; stroke: rgb(255, 255, 255);"/><line x1="8" y1="0" x2="-8" y2="0" style="stroke-width: 1.25px; stroke: rgb(255, 255, 255);"/></g></g><line x1="942" y1="516" x2="942" y2="596" style="stroke-width: 1px; stroke: rgb(0, 45, 156);"/><circle r="4" cx="942" cy="596" style="fill: rgb(0, 45, 156);"/><g transform="translate(942, 516)"><g><circle cx="0" cy="0" r="16" style="fill: rgb(0, 45, 156); stroke-width: 0px; stroke: transparent; paint-order: stroke;"/><line x1="0" y1="-8" x2="0" y2="8" style="stroke-width: 1.25px; stroke: rgb(255, 255, 255);"/><line x1="8" y1="0" x2="-8" y2="0" style="stroke-width: 1.25px; stroke: rgb(255, 255, 255);"/></g></g><line x1="982" y1="516" x2="982" y2="636" style="stroke-width: 1px; stroke: rgb(0, 45, 156);"/><circle r="4" cx="982" cy="516" style="fill: rgb(0, 45, 156);"/><circle r="4" cx="982" cy="556" style="fill: rgb(0, 45, 156);"/><g transform="translate(982, 636)"><g><circle cx="0" cy="0" r="16" style="fill: rgb(0, 45, 156); stroke-width: 0px; stroke: transparent; paint-order: stroke;"/><line x1="0" y1="-8" x2="0" y2="8" style="stroke-width: 1.25px; stroke: rgb(255, 255, 255);"/><line x1="8" y1="0" x2="-8" y2="0" style="stroke-width: 1.25px; stroke: rgb(255, 255, 255);"/></g></g><line x1="1022" y1="516" x2="1022" y2="556" style="stroke-width: 1px; stroke: rgb(0, 45, 156);"/><circle r="4" cx="1022" cy="556" style="fill: rgb(0, 45, 156);"/><g transform="translate(1022, 516)"><g><circle cx="0" cy="0" r="16" style="fill: rgb(0, 45, 156); stroke-width: 0px; stroke: transparent; paint-order: stroke;"/><line x1="0" y1="-8" x2="0" y2="8" style="stroke-width: 1.25px; stroke: rgb(255, 255, 255);"/><line x1="8" y1="0" x2="-8" y2="0" style="stroke-width: 1.25px; stroke: rgb(255, 255, 255);"/></g></g></g></svg>