<svg xmlns="http://www.w3.org/2000/svg" class="" style="display: block; user-select: none;" viewBox="0 0 1035.6 480" width="1035.6" height="480"><defs xmlns="http://www.w3.org/1999/xhtml"><style type="text/css">&lt;!--/*--&gt;&lt;![CDATA[/*&gt;&lt;!--*/

  /* from https://fonts.googleapis.com/css2?family=IBM+Plex+Sans&amp;display=swap */
  @font-face {
    font-family: 'IBM Plex Sans';
    font-style: normal;
    font-weight: 400;
    font-display: swap;
    src: url(https://fonts.gstatic.com/s/ibmplexsans/v14/zYXgKVElMYYaJe8bpLHnCwDKhdHeFaxOedc.woff2) format('woff2');
  }
  
  /* from https://fonts.googleapis.com/css2?family=IBM+Plex+Mono&amp;display=swap */
  @font-face {
    font-family: 'IBM Plex Mono';
    font-style: normal;
    font-weight: 400;
    font-display: swap;
    src: url(https://fonts.gstatic.com/s/ibmplexmono/v12/-F63fjptAgt5VM-kVkqdyU8n1i8q131nj-o.woff2) format('woff2');
  }    

/*]]&gt;*/--&gt;</style></defs><rect x="0" y="0" width="1035.6" height="480" style="fill: rgb(255, 255, 255);"/><g><g transform="translate(20, 0)"><g><g><text x="57.599999999999994" y="36" style="fill: rgb(111, 111, 111); font-family: IBM Plex Mono, monospace; font-weight: 400; text-anchor: end; font-size: 14px;" dy=".3em"><tspan>q0[0]</tspan></text><text x="57.599999999999994" y="76" style="fill: rgb(111, 111, 111); font-family: IBM Plex Mono, monospace; font-weight: 400; text-anchor: end; font-size: 14px;" dy=".3em"><tspan>q0[1]</tspan></text><text x="57.599999999999994" y="116" style="fill: rgb(111, 111, 111); font-family: IBM Plex Mono, monospace; font-weight: 400; text-anchor: end; font-size: 14px;" dy=".3em"><tspan>q0[2]</tspan></text><text x="57.599999999999994" y="156" style="fill: rgb(111, 111, 111); font-family: IBM Plex Mono, monospace; font-weight: 400; text-anchor: end; font-size: 14px;" dy=".3em"><tspan>q0[3]</tspan></text><text x="57.599999999999994" y="196" style="fill: rgb(111, 111, 111); font-family: IBM Plex Mono, monospace; font-weight: 400; text-anchor: end; font-size: 14px;" dy=".3em"><tspan>q0[4]</tspan></text><text x="57.599999999999994" y="236" style="fill: rgb(111, 111, 111); font-family: IBM Plex Mono, monospace; font-weight: 400; text-anchor: end; font-size: 14px;" dy=".3em"><tspan>q0[5]</tspan></text><text x="57.599999999999994" y="276" style="fill: rgb(111, 111, 111); font-family: IBM Plex Mono, monospace; font-weight: 400; text-anchor: end; font-size: 14px;" dy=".3em"><tspan>q0[6]</tspan></text><text x="57.599999999999994" y="316" style="fill: rgb(111, 111, 111); font-family: IBM Plex Mono, monospace; font-weight: 400; text-anchor: end; font-size: 14px;" dy=".3em"><tspan>q0[7]</tspan></text><text x="57.599999999999994" y="356" style="fill: rgb(111, 111, 111); font-family: IBM Plex Mono, monospace; font-weight: 400; text-anchor: end; font-size: 14px;" dy=".3em"><tspan>q0[8]</tspan></text><text x="57.599999999999994" y="396" style="fill: rgb(111, 111, 111); font-family: IBM Plex Mono, monospace; font-weight: 400; text-anchor: end; font-size: 14px;" dy=".3em"><tspan>q0[9]</tspan></text><text x="57.599999999999994" y="436" style="fill: rgb(111, 111, 111); font-family: IBM Plex Mono, monospace; font-weight: 400; text-anchor: end; font-size: 14px;" dy=".3em"><tspan>q0[10]</tspan></text></g><g/></g></g><g><g><line x1="87.6" x2="1015.6" y1="36" y2="36" style="fill: none; stroke: rgb(224, 224, 224); stroke-width: 1px; stroke-linecap: round;"/><line x1="87.6" x2="1015.6" y1="76" y2="76" style="fill: none; stroke: rgb(224, 224, 224); stroke-width: 1px; stroke-linecap: round;"/><line x1="87.6" x2="1015.6" y1="116" y2="116" style="fill: none; stroke: rgb(224, 224, 224); stroke-width: 1px; stroke-linecap: round;"/><line x1="87.6" x2="1015.6" y1="156" y2="156" style="fill: none; stroke: rgb(224, 224, 224); stroke-width: 1px; stroke-linecap: round;"/><line x1="87.6" x2="1015.6" y1="196" y2="196" style="fill: none; stroke: rgb(224, 224, 224); stroke-width: 1px; stroke-linecap: round;"/><line x1="87.6" x2="1015.6" y1="236" y2="236" style="fill: none; stroke: rgb(224, 224, 224); stroke-width: 1px; stroke-linecap: round;"/><line x1="87.6" x2="1015.6" y1="276" y2="276" style="fill: none; stroke: rgb(224, 224, 224); stroke-width: 1px; stroke-linecap: round;"/><line x1="87.6" x2="1015.6" y1="316" y2="316" style="fill: none; stroke: rgb(224, 224, 224); stroke-width: 1px; stroke-linecap: round;"/><line x1="87.6" x2="1015.6" y1="356" y2="356" style="fill: none; stroke: rgb(224, 224, 224); stroke-width: 1px; stroke-linecap: round;"/><line x1="87.6" x2="1015.6" y1="396" y2="396" style="fill: none; stroke: rgb(224, 224, 224); stroke-width: 1px; stroke-linecap: round;"/><line x1="87.6" x2="1015.6" y1="436" y2="436" style="fill: none; stroke: rgb(224, 224, 224); stroke-width: 1px; stroke-linecap: round;"/></g></g><line x1="111.6" y1="116" x2="111.6" y2="156" style="stroke-width: 1px; stroke: rgb(0, 45, 156);"/><circle r="4" cx="111.6" cy="156" style="fill: rgb(0, 45, 156);"/><g transform="translate(111.6, 116)"><g><circle cx="0" cy="0" r="16" style="fill: rgb(0, 45, 156); stroke-width: 0px; stroke: transparent; paint-order: stroke;"/><line x1="0" y1="-8" x2="0" y2="8" style="stroke-width: 1.25px; stroke: rgb(255, 255, 255);"/><line x1="8" y1="0" x2="-8" y2="0" style="stroke-width: 1.25px; stroke: rgb(255, 255, 255);"/></g></g><line x1="111.6" y1="196" x2="111.6" y2="236" style="stroke-width: 1px; stroke: rgb(0, 45, 156);"/><circle r="4" cx="111.6" cy="236" style="fill: rgb(0, 45, 156);"/><g transform="translate(111.6, 196)"><g><circle cx="0" cy="0" r="16" style="fill: rgb(0, 45, 156); stroke-width: 0px; stroke: transparent; paint-order: stroke;"/><line x1="0" y1="-8" x2="0" y2="8" style="stroke-width: 1.25px; stroke: rgb(255, 255, 255);"/><line x1="8" y1="0" x2="-8" y2="0" style="stroke-width: 1.25px; stroke: rgb(255, 255, 255);"/></g></g><line x1="111.6" y1="276" x2="111.6" y2="316" style="stroke-width: 1px; stroke: rgb(0, 45, 156);"/><circle r="4" cx="111.6" cy="316" style="fill: rgb(0, 45, 156);"/><g transform="translate(111.6, 276)"><g><circle cx="0" cy="0" r="16" style="fill: rgb(0, 45, 156); stroke-width: 0px; stroke: transparent; paint-order: stroke;"/><line x1="0" y1="-8" x2="0" y2="8" style="stroke-width: 1.25px; stroke: rgb(255, 255, 255);"/><line x1="8" y1="0" x2="-8" y2="0" style="stroke-width: 1.25px; stroke: rgb(255, 255, 255);"/></g></g><line x1="111.6" y1="356" x2="111.6" y2="396" style="stroke-width: 1px; stroke: rgb(0, 45, 156);"/><circle r="4" cx="111.6" cy="396" style="fill: rgb(0, 45, 156);"/><g transform="translate(111.6, 356)"><g><circle cx="0" cy="0" r="16" style="fill: rgb(0, 45, 156); stroke-width: 0px; stroke: transparent; paint-order: stroke;"/><line x1="0" y1="-8" x2="0" y2="8" style="stroke-width: 1.25px; stroke: rgb(255, 255, 255);"/><line x1="8" y1="0" x2="-8" y2="0" style="stroke-width: 1.25px; stroke: rgb(255, 255, 255);"/></g></g><line x1="151.6" y1="396" x2="151.6" y2="436" style="stroke-width: 1px; stroke: rgb(0, 45, 156);"/><circle r="4" cx="151.6" cy="396" style="fill: rgb(0, 45, 156);"/><g transform="translate(151.6, 436)"><g><circle cx="0" cy="0" r="16" style="fill: rgb(0, 45, 156); stroke-width: 0px; stroke: transparent; paint-order: stroke;"/><line x1="0" y1="-8" x2="0" y2="8" style="stroke-width: 1.25px; stroke: rgb(255, 255, 255);"/><line x1="8" y1="0" x2="-8" y2="0" style="stroke-width: 1.25px; stroke: rgb(255, 255, 255);"/></g></g><line x1="191.6" y1="316" x2="191.6" y2="396" style="stroke-width: 1px; stroke: rgb(0, 45, 156);"/><circle r="4" cx="191.6" cy="316" style="fill: rgb(0, 45, 156);"/><g transform="translate(191.6, 396)"><g><circle cx="0" cy="0" r="16" style="fill: rgb(0, 45, 156); stroke-width: 0px; stroke: transparent; paint-order: stroke;"/><line x1="0" y1="-8" x2="0" y2="8" style="stroke-width: 1.25px; stroke: rgb(255, 255, 255);"/><line x1="8" y1="0" x2="-8" y2="0" style="stroke-width: 1.25px; stroke: rgb(255, 255, 255);"/></g></g><line x1="231.6" y1="236" x2="231.6" y2="316" style="stroke-width: 1px; stroke: rgb(0, 45, 156);"/><circle r="4" cx="231.6" cy="236" style="fill: rgb(0, 45, 156);"/><g transform="translate(231.6, 316)"><g><circle cx="0" cy="0" r="16" style="fill: rgb(0, 45, 156); stroke-width: 0px; stroke: transparent; paint-order: stroke;"/><line x1="0" y1="-8" x2="0" y2="8" style="stroke-width: 1.25px; stroke: rgb(255, 255, 255);"/><line x1="8" y1="0" x2="-8" y2="0" style="stroke-width: 1.25px; stroke: rgb(255, 255, 255);"/></g></g><line x1="271.6" y1="156" x2="271.6" y2="236" style="stroke-width: 1px; stroke: rgb(0, 45, 156);"/><circle r="4" cx="271.6" cy="156" style="fill: rgb(0, 45, 156);"/><g transform="translate(271.6, 236)"><g><circle cx="0" cy="0" r="16" style="fill: rgb(0, 45, 156); stroke-width: 0px; stroke: transparent; paint-order: stroke;"/><line x1="0" y1="-8" x2="0" y2="8" style="stroke-width: 1.25px; stroke: rgb(255, 255, 255);"/><line x1="8" y1="0" x2="-8" y2="0" style="stroke-width: 1.25px; stroke: rgb(255, 255, 255);"/></g></g><line x1="311.6" y1="36" x2="311.6" y2="156" style="stroke-width: 1px; stroke: rgb(0, 45, 156);"/><circle r="4" cx="311.6" cy="36" style="fill: rgb(0, 45, 156);"/><circle r="4" cx="311.6" cy="76" style="fill: rgb(0, 45, 156);"/><g transform="translate(311.6, 156)"><g><circle cx="0" cy="0" r="16" style="fill: rgb(0, 45, 156); stroke-width: 0px; stroke: transparent; paint-order: stroke;"/><line x1="0" y1="-8" x2="0" y2="8" style="stroke-width: 1.25px; stroke: rgb(255, 255, 255);"/><line x1="8" y1="0" x2="-8" y2="0" style="stroke-width: 1.25px; stroke: rgb(255, 255, 255);"/></g></g><line x1="351.6" y1="116" x2="351.6" y2="236" style="stroke-width: 1px; stroke: rgb(0, 45, 156);"/><circle r="4" cx="351.6" cy="116" style="fill: rgb(0, 45, 156);"/><circle r="4" cx="351.6" cy="156" style="fill: rgb(0, 45, 156);"/><g transform="translate(351.6, 236)"><g><circle cx="0" cy="0" r="16" style="fill: rgb(0, 45, 156); stroke-width: 0px; stroke: transparent; paint-order: stroke;"/><line x1="0" y1="-8" x2="0" y2="8" style="stroke-width: 1.25px; stroke: rgb(255, 255, 255);"/><line x1="8" y1="0" x2="-8" y2="0" style="stroke-width: 1.25px; stroke: rgb(255, 255, 255);"/></g></g><line x1="391.6" y1="196" x2="391.6" y2="316" style="stroke-width: 1px; stroke: rgb(0, 45, 156);"/><circle r="4" cx="391.6" cy="196" style="fill: rgb(0, 45, 156);"/><circle r="4" cx="391.6" cy="236" style="fill: rgb(0, 45, 156);"/><g transform="translate(391.6, 316)"><g><circle cx="0" cy="0" r="16" style="fill: rgb(0, 45, 156); stroke-width: 0px; stroke: transparent; paint-order: stroke;"/><line x1="0" y1="-8" x2="0" y2="8" style="stroke-width: 1.25px; stroke: rgb(255, 255, 255);"/><line x1="8" y1="0" x2="-8" y2="0" style="stroke-width: 1.25px; stroke: rgb(255, 255, 255);"/></g></g><line x1="431.6" y1="276" x2="431.6" y2="396" style="stroke-width: 1px; stroke: rgb(0, 45, 156);"/><circle r="4" cx="431.6" cy="276" style="fill: rgb(0, 45, 156);"/><circle r="4" cx="431.6" cy="316" style="fill: rgb(0, 45, 156);"/><g transform="translate(431.6, 396)"><g><circle cx="0" cy="0" r="16" style="fill: rgb(0, 45, 156); stroke-width: 0px; stroke: transparent; paint-order: stroke;"/><line x1="0" y1="-8" x2="0" y2="8" style="stroke-width: 1.25px; stroke: rgb(255, 255, 255);"/><line x1="8" y1="0" x2="-8" y2="0" style="stroke-width: 1.25px; stroke: rgb(255, 255, 255);"/></g></g><line x1="471.6" y1="356" x2="471.6" y2="436" style="stroke-width: 1px; stroke: rgb(0, 45, 156);"/><circle r="4" cx="471.6" cy="356" style="fill: rgb(0, 45, 156);"/><circle r="4" cx="471.6" cy="396" style="fill: rgb(0, 45, 156);"/><g transform="translate(471.6, 436)"><g><circle cx="0" cy="0" r="16" style="fill: rgb(0, 45, 156); stroke-width: 0px; stroke: transparent; paint-order: stroke;"/><line x1="0" y1="-8" x2="0" y2="8" style="stroke-width: 1.25px; stroke: rgb(255, 255, 255);"/><line x1="8" y1="0" x2="-8" y2="0" style="stroke-width: 1.25px; stroke: rgb(255, 255, 255);"/></g></g><line x1="511.6" y1="356" x2="511.6" y2="396" style="stroke-width: 1px; stroke: rgb(0, 45, 156);"/><circle r="4" cx="511.6" cy="396" style="fill: rgb(0, 45, 156);"/><g transform="translate(511.6, 356)"><g><circle cx="0" cy="0" r="16" style="fill: rgb(0, 45, 156); stroke-width: 0px; stroke: transparent; paint-order: stroke;"/><line x1="0" y1="-8" x2="0" y2="8" style="stroke-width: 1.25px; stroke: rgb(255, 255, 255);"/><line x1="8" y1="0" x2="-8" y2="0" style="stroke-width: 1.25px; stroke: rgb(255, 255, 255);"/></g></g><line x1="551.6" y1="276" x2="551.6" y2="396" style="stroke-width: 1px; stroke: rgb(0, 45, 156);"/><circle r="4" cx="551.6" cy="276" style="fill: rgb(0, 45, 156);"/><circle r="4" cx="551.6" cy="316" style="fill: rgb(0, 45, 156);"/><g transform="translate(551.6, 396)"><g><circle cx="0" cy="0" r="16" style="fill: rgb(0, 45, 156); stroke-width: 0px; stroke: transparent; paint-order: stroke;"/><line x1="0" y1="-8" x2="0" y2="8" style="stroke-width: 1.25px; stroke: rgb(255, 255, 255);"/><line x1="8" y1="0" x2="-8" y2="0" style="stroke-width: 1.25px; stroke: rgb(255, 255, 255);"/></g></g><line x1="591.6" y1="276" x2="591.6" y2="316" style="stroke-width: 1px; stroke: rgb(0, 45, 156);"/><circle r="4" cx="591.6" cy="316" style="fill: rgb(0, 45, 156);"/><g transform="translate(591.6, 276)"><g><circle cx="0" cy="0" r="16" style="fill: rgb(0, 45, 156); stroke-width: 0px; stroke: transparent; paint-order: stroke;"/><line x1="0" y1="-8" x2="0" y2="8" style="stroke-width: 1.25px; stroke: rgb(255, 255, 255);"/><line x1="8" y1="0" x2="-8" y2="0" style="stroke-width: 1.25px; stroke: rgb(255, 255, 255);"/></g></g><line x1="631.6" y1="196" x2="631.6" y2="316" style="stroke-width: 1px; stroke: rgb(0, 45, 156);"/><circle r="4" cx="631.6" cy="196" style="fill: rgb(0, 45, 156);"/><circle r="4" cx="631.6" cy="236" style="fill: rgb(0, 45, 156);"/><g transform="translate(631.6, 316)"><g><circle cx="0" cy="0" r="16" style="fill: rgb(0, 45, 156); stroke-width: 0px; stroke: transparent; paint-order: stroke;"/><line x1="0" y1="-8" x2="0" y2="8" style="stroke-width: 1.25px; stroke: rgb(255, 255, 255);"/><line x1="8" y1="0" x2="-8" y2="0" style="stroke-width: 1.25px; stroke: rgb(255, 255, 255);"/></g></g><line x1="671.6" y1="196" x2="671.6" y2="236" style="stroke-width: 1px; stroke: rgb(0, 45, 156);"/><circle r="4" cx="671.6" cy="236" style="fill: rgb(0, 45, 156);"/><g transform="translate(671.6, 196)"><g><circle cx="0" cy="0" r="16" style="fill: rgb(0, 45, 156); stroke-width: 0px; stroke: transparent; paint-order: stroke;"/><line x1="0" y1="-8" x2="0" y2="8" style="stroke-width: 1.25px; stroke: rgb(255, 255, 255);"/><line x1="8" y1="0" x2="-8" y2="0" style="stroke-width: 1.25px; stroke: rgb(255, 255, 255);"/></g></g><line x1="711.6" y1="116" x2="711.6" y2="236" style="stroke-width: 1px; stroke: rgb(0, 45, 156);"/><circle r="4" cx="711.6" cy="116" style="fill: rgb(0, 45, 156);"/><circle r="4" cx="711.6" cy="156" style="fill: rgb(0, 45, 156);"/><g transform="translate(711.6, 236)"><g><circle cx="0" cy="0" r="16" style="fill: rgb(0, 45, 156); stroke-width: 0px; stroke: transparent; paint-order: stroke;"/><line x1="0" y1="-8" x2="0" y2="8" style="stroke-width: 1.25px; stroke: rgb(255, 255, 255);"/><line x1="8" y1="0" x2="-8" y2="0" style="stroke-width: 1.25px; stroke: rgb(255, 255, 255);"/></g></g><line x1="751.6" y1="116" x2="751.6" y2="156" style="stroke-width: 1px; stroke: rgb(0, 45, 156);"/><circle r="4" cx="751.6" cy="156" style="fill: rgb(0, 45, 156);"/><g transform="translate(751.6, 116)"><g><circle cx="0" cy="0" r="16" style="fill: rgb(0, 45, 156); stroke-width: 0px; stroke: transparent; paint-order: stroke;"/><line x1="0" y1="-8" x2="0" y2="8" style="stroke-width: 1.25px; stroke: rgb(255, 255, 255);"/><line x1="8" y1="0" x2="-8" y2="0" style="stroke-width: 1.25px; stroke: rgb(255, 255, 255);"/></g></g><line x1="791.6" y1="36" x2="791.6" y2="156" style="stroke-width: 1px; stroke: rgb(0, 45, 156);"/><circle r="4" cx="791.6" cy="36" style="fill: rgb(0, 45, 156);"/><circle r="4" cx="791.6" cy="76" style="fill: rgb(0, 45, 156);"/><g transform="translate(791.6, 156)"><g><circle cx="0" cy="0" r="16" style="fill: rgb(0, 45, 156); stroke-width: 0px; stroke: transparent; paint-order: stroke;"/><line x1="0" y1="-8" x2="0" y2="8" style="stroke-width: 1.25px; stroke: rgb(255, 255, 255);"/><line x1="8" y1="0" x2="-8" y2="0" style="stroke-width: 1.25px; stroke: rgb(255, 255, 255);"/></g></g><line x1="831.6" y1="156" x2="831.6" y2="236" style="stroke-width: 1px; stroke: rgb(0, 45, 156);"/><circle r="4" cx="831.6" cy="156" style="fill: rgb(0, 45, 156);"/><g transform="translate(831.6, 236)"><g><circle cx="0" cy="0" r="16" style="fill: rgb(0, 45, 156); stroke-width: 0px; stroke: transparent; paint-order: stroke;"/><line x1="0" y1="-8" x2="0" y2="8" style="stroke-width: 1.25px; stroke: rgb(255, 255, 255);"/><line x1="8" y1="0" x2="-8" y2="0" style="stroke-width: 1.25px; stroke: rgb(255, 255, 255);"/></g></g><line x1="871.6" y1="236" x2="871.6" y2="316" style="stroke-width: 1px; stroke: rgb(0, 45, 156);"/><circle r="4" cx="871.6" cy="236" style="fill: rgb(0, 45, 156);"/><g transform="translate(871.6, 316)"><g><circle cx="0" cy="0" r="16" style="fill: rgb(0, 45, 156); stroke-width: 0px; stroke: transparent; paint-order: stroke;"/><line x1="0" y1="-8" x2="0" y2="8" style="stroke-width: 1.25px; stroke: rgb(255, 255, 255);"/><line x1="8" y1="0" x2="-8" y2="0" style="stroke-width: 1.25px; stroke: rgb(255, 255, 255);"/></g></g><line x1="911.6" y1="316" x2="911.6" y2="396" style="stroke-width: 1px; stroke: rgb(0, 45, 156);"/><circle r="4" cx="911.6" cy="316" style="fill: rgb(0, 45, 156);"/><g transform="translate(911.6, 396)"><g><circle cx="0" cy="0" r="16" style="fill: rgb(0, 45, 156); stroke-width: 0px; stroke: transparent; paint-order: stroke;"/><line x1="0" y1="-8" x2="0" y2="8" style="stroke-width: 1.25px; stroke: rgb(255, 255, 255);"/><line x1="8" y1="0" x2="-8" y2="0" style="stroke-width: 1.25px; stroke: rgb(255, 255, 255);"/></g></g><g transform="translate(951.6, 36)"><line x1="0" y1="-16" x2="0" y2="-2" style="stroke-width: 1px; stroke: rgb(22, 22, 22);"/><line x1="0" y1="2" x2="0" y2="16" style="stroke-width: 1px; stroke: rgb(22, 22, 22);"/></g><g transform="translate(951.6, 76)"><line x1="0" y1="-16" x2="0" y2="-2" style="stroke-width: 1px; stroke: rgb(22, 22, 22);"/><line x1="0" y1="2" x2="0" y2="16" style="stroke-width: 1px; stroke: rgb(22, 22, 22);"/></g><g transform="translate(951.6, 116)"><line x1="0" y1="-16" x2="0" y2="-2" style="stroke-width: 1px; stroke: rgb(22, 22, 22);"/><line x1="0" y1="2" x2="0" y2="16" style="stroke-width: 1px; stroke: rgb(22, 22, 22);"/></g><g transform="translate(951.6, 156)"><line x1="0" y1="-16" x2="0" y2="-2" style="stroke-width: 1px; stroke: rgb(22, 22, 22);"/><line x1="0" y1="2" x2="0" y2="16" style="stroke-width: 1px; stroke: rgb(22, 22, 22);"/></g><g transform="translate(951.6, 196)"><line x1="0" y1="-16" x2="0" y2="-2" style="stroke-width: 1px; stroke: rgb(22, 22, 22);"/><line x1="0" y1="2" x2="0" y2="16" style="stroke-width: 1px; stroke: rgb(22, 22, 22);"/></g><g transform="translate(951.6, 236)"><line x1="0" y1="-16" x2="0" y2="-2" style="stroke-width: 1px; stroke: rgb(22, 22, 22);"/><line x1="0" y1="2" x2="0" y2="16" style="stroke-width: 1px; stroke: rgb(22, 22, 22);"/></g><g transform="translate(951.6, 276)"><line x1="0" y1="-16" x2="0" y2="-2" style="stroke-width: 1px; stroke: rgb(22, 22, 22);"/><line x1="0" y1="2" x2="0" y2="16" style="stroke-width: 1px; stroke: rgb(22, 22, 22);"/></g><g transform="translate(951.6, 316)"><line x1="0" y1="-16" x2="0" y2="-2" style="stroke-width: 1px; stroke: rgb(22, 22, 22);"/><line x1="0" y1="2" x2="0" y2="16" style="stroke-width: 1px; stroke: rgb(22, 22, 22);"/></g><g transform="translate(951.6, 356)"><line x1="0" y1="-16" x2="0" y2="-2" style="stroke-width: 1px; stroke: rgb(22, 22, 22);"/><line x1="0" y1="2" x2="0" y2="16" style="stroke-width: 1px; stroke: rgb(22, 22, 22);"/></g><g transform="translate(951.6, 396)"><line x1="0" y1="-16" x2="0" y2="-2" style="stroke-width: 1px; stroke: rgb(22, 22, 22);"/><line x1="0" y1="2" x2="0" y2="16" style="stroke-width: 1px; stroke: rgb(22, 22, 22);"/></g><g transform="translate(951.6, 436)"><line x1="0" y1="-16" x2="0" y2="-2" style="stroke-width: 1px; stroke: rgb(22, 22, 22);"/><line x1="0" y1="2" x2="0" y2="16" style="stroke-width: 1px; stroke: rgb(22, 22, 22);"/></g><line x1="991.6" y1="36" x2="991.6" y2="76" style="stroke-width: 1px; stroke: rgb(0, 45, 156);"/><circle r="4" cx="991.6" cy="76" style="fill: rgb(0, 45, 156);"/><g transform="translate(991.6, 36)"><g><circle cx="0" cy="0" r="16" style="fill: rgb(0, 45, 156); stroke-width: 0px; stroke: transparent; paint-order: stroke;"/><line x1="0" y1="-8" x2="0" y2="8" style="stroke-width: 1.25px; stroke: rgb(255, 255, 255);"/><line x1="8" y1="0" x2="-8" y2="0" style="stroke-width: 1.25px; stroke: rgb(255, 255, 255);"/></g></g><line x1="991.6" y1="116" x2="991.6" y2="156" style="stroke-width: 1px; stroke: rgb(0, 45, 156);"/><circle r="4" cx="991.6" cy="156" style="fill: rgb(0, 45, 156);"/><g transform="translate(991.6, 116)"><g><circle cx="0" cy="0" r="16" style="fill: rgb(0, 45, 156); stroke-width: 0px; stroke: transparent; paint-order: stroke;"/><line x1="0" y1="-8" x2="0" y2="8" style="stroke-width: 1.25px; stroke: rgb(255, 255, 255);"/><line x1="8" y1="0" x2="-8" y2="0" style="stroke-width: 1.25px; stroke: rgb(255, 255, 255);"/></g></g><line x1="991.6" y1="196" x2="991.6" y2="236" style="stroke-width: 1px; stroke: rgb(0, 45, 156);"/><circle r="4" cx="991.6" cy="236" style="fill: rgb(0, 45, 156);"/><g transform="translate(991.6, 196)"><g><circle cx="0" cy="0" r="16" style="fill: rgb(0, 45, 156); stroke-width: 0px; stroke: transparent; paint-order: stroke;"/><line x1="0" y1="-8" x2="0" y2="8" style="stroke-width: 1.25px; stroke: rgb(255, 255, 255);"/><line x1="8" y1="0" x2="-8" y2="0" style="stroke-width: 1.25px; stroke: rgb(255, 255, 255);"/></g></g><line x1="991.6" y1="276" x2="991.6" y2="316" style="stroke-width: 1px; stroke: rgb(0, 45, 156);"/><circle r="4" cx="991.6" cy="316" style="fill: rgb(0, 45, 156);"/><g transform="translate(991.6, 276)"><g><circle cx="0" cy="0" r="16" style="fill: rgb(0, 45, 156); stroke-width: 0px; stroke: transparent; paint-order: stroke;"/><line x1="0" y1="-8" x2="0" y2="8" style="stroke-width: 1.25px; stroke: rgb(255, 255, 255);"/><line x1="8" y1="0" x2="-8" y2="0" style="stroke-width: 1.25px; stroke: rgb(255, 255, 255);"/></g></g><line x1="991.6" y1="356" x2="991.6" y2="396" style="stroke-width: 1px; stroke: rgb(0, 45, 156);"/><circle r="4" cx="991.6" cy="396" style="fill: rgb(0, 45, 156);"/><g transform="translate(991.6, 356)"><g><circle cx="0" cy="0" r="16" style="fill: rgb(0, 45, 156); stroke-width: 0px; stroke: transparent; paint-order: stroke;"/><line x1="0" y1="-8" x2="0" y2="8" style="stroke-width: 1.25px; stroke: rgb(255, 255, 255);"/><line x1="8" y1="0" x2="-8" y2="0" style="stroke-width: 1.25px; stroke: rgb(255, 255, 255);"/></g></g></g></svg>