<svg xmlns="http://www.w3.org/2000/svg" class="" style="display: block; user-select: none;" viewBox="0 0 911 480" width="911" height="480"><defs xmlns="http://www.w3.org/1999/xhtml"><style type="text/css">&lt;!--/*--&gt;&lt;![CDATA[/*&gt;&lt;!--*/

  /* from https://fonts.googleapis.com/css2?family=IBM+Plex+Sans&amp;display=swap */
  @font-face {
    font-family: 'IBM Plex Sans';
    font-style: normal;
    font-weight: 400;
    font-display: swap;
    src: url(https://fonts.gstatic.com/s/ibmplexsans/v14/zYXgKVElMYYaJe8bpLHnCwDKhdHeFaxOedc.woff2) format('woff2');
  }
  
  /* from https://fonts.googleapis.com/css2?family=IBM+Plex+Mono&amp;display=swap */
  @font-face {
    font-family: 'IBM Plex Mono';
    font-style: normal;
    font-weight: 400;
    font-display: swap;
    src: url(https://fonts.gstatic.com/s/ibmplexmono/v12/-F63fjptAgt5VM-kVkqdyU8n1i8q131nj-o.woff2) format('woff2');
  }    

/*]]&gt;*/--&gt;</style></defs><rect x="0" y="0" width="911" height="480" style="fill: rgb(255, 255, 255);"/><g><g transform="translate(20, 0)"><g><g><text x="48" y="36" style="fill: rgb(111, 111, 111); font-family: IBM Plex Mono, monospace; font-weight: 400; text-anchor: end; font-size: 14px;" dy=".3em"><tspan>q[0]</tspan></text><text x="48" y="76" style="fill: rgb(111, 111, 111); font-family: IBM Plex Mono, monospace; font-weight: 400; text-anchor: end; font-size: 14px;" dy=".3em"><tspan>q[1]</tspan></text><text x="48" y="116" style="fill: rgb(111, 111, 111); font-family: IBM Plex Mono, monospace; font-weight: 400; text-anchor: end; font-size: 14px;" dy=".3em"><tspan>q[2]</tspan></text><text x="48" y="156" style="fill: rgb(111, 111, 111); font-family: IBM Plex Mono, monospace; font-weight: 400; text-anchor: end; font-size: 14px;" dy=".3em"><tspan>q[3]</tspan></text><text x="48" y="196" style="fill: rgb(111, 111, 111); font-family: IBM Plex Mono, monospace; font-weight: 400; text-anchor: end; font-size: 14px;" dy=".3em"><tspan>q[4]</tspan></text><text x="48" y="236" style="fill: rgb(111, 111, 111); font-family: IBM Plex Mono, monospace; font-weight: 400; text-anchor: end; font-size: 14px;" dy=".3em"><tspan>q[5]</tspan></text><text x="48" y="276" style="fill: rgb(111, 111, 111); font-family: IBM Plex Mono, monospace; font-weight: 400; text-anchor: end; font-size: 14px;" dy=".3em"><tspan>q[6]</tspan></text><text x="48" y="316" style="fill: rgb(111, 111, 111); font-family: IBM Plex Mono, monospace; font-weight: 400; text-anchor: end; font-size: 14px;" dy=".3em"><tspan>q[7]</tspan></text><text x="48" y="356" style="fill: rgb(111, 111, 111); font-family: IBM Plex Mono, monospace; font-weight: 400; text-anchor: end; font-size: 14px;" dy=".3em"><tspan>q[8]</tspan></text><text x="48" y="396" style="fill: rgb(111, 111, 111); font-family: IBM Plex Mono, monospace; font-weight: 400; text-anchor: end; font-size: 14px;" dy=".3em"><tspan>q[9]</tspan></text><text x="48" y="436" style="fill: rgb(111, 111, 111); font-family: IBM Plex Mono, monospace; font-weight: 400; text-anchor: end; font-size: 14px;" dy=".3em"><tspan>q[10]</tspan></text></g><g/></g></g><g><g><line x1="78" x2="891" y1="36" y2="36" style="fill: none; stroke: rgb(224, 224, 224); stroke-width: 1px; stroke-linecap: round;"/><line x1="78" x2="891" y1="76" y2="76" style="fill: none; stroke: rgb(224, 224, 224); stroke-width: 1px; stroke-linecap: round;"/><line x1="78" x2="891" y1="116" y2="116" style="fill: none; stroke: rgb(224, 224, 224); stroke-width: 1px; stroke-linecap: round;"/><line x1="78" x2="891" y1="156" y2="156" style="fill: none; stroke: rgb(224, 224, 224); stroke-width: 1px; stroke-linecap: round;"/><line x1="78" x2="891" y1="196" y2="196" style="fill: none; stroke: rgb(224, 224, 224); stroke-width: 1px; stroke-linecap: round;"/><line x1="78" x2="891" y1="236" y2="236" style="fill: none; stroke: rgb(224, 224, 224); stroke-width: 1px; stroke-linecap: round;"/><line x1="78" x2="891" y1="276" y2="276" style="fill: none; stroke: rgb(224, 224, 224); stroke-width: 1px; stroke-linecap: round;"/><line x1="78" x2="891" y1="316" y2="316" style="fill: none; stroke: rgb(224, 224, 224); stroke-width: 1px; stroke-linecap: round;"/><line x1="78" x2="891" y1="356" y2="356" style="fill: none; stroke: rgb(224, 224, 224); stroke-width: 1px; stroke-linecap: round;"/><line x1="78" x2="891" y1="396" y2="396" style="fill: none; stroke: rgb(224, 224, 224); stroke-width: 1px; stroke-linecap: round;"/><line x1="78" x2="891" y1="436" y2="436" style="fill: none; stroke: rgb(224, 224, 224); stroke-width: 1px; stroke-linecap: round;"/></g></g><line x1="102" y1="116" x2="102" y2="156" style="stroke-width: 1px; stroke: rgb(0, 45, 156);"/><circle r="4" cx="102" cy="156" style="fill: rgb(0, 45, 156);"/><g transform="translate(102, 116)"><g><circle cx="0" cy="0" r="16" style="fill: rgb(0, 45, 156); stroke-width: 0px; stroke: transparent; paint-order: stroke;"/><line x1="0" y1="-8" x2="0" y2="8" style="stroke-width: 1.25px; stroke: rgb(255, 255, 255);"/><line x1="8" y1="0" x2="-8" y2="0" style="stroke-width: 1.25px; stroke: rgb(255, 255, 255);"/></g></g><line x1="102" y1="196" x2="102" y2="236" style="stroke-width: 1px; stroke: rgb(0, 45, 156);"/><circle r="4" cx="102" cy="236" style="fill: rgb(0, 45, 156);"/><g transform="translate(102, 196)"><g><circle cx="0" cy="0" r="16" style="fill: rgb(0, 45, 156); stroke-width: 0px; stroke: transparent; paint-order: stroke;"/><line x1="0" y1="-8" x2="0" y2="8" style="stroke-width: 1.25px; stroke: rgb(255, 255, 255);"/><line x1="8" y1="0" x2="-8" y2="0" style="stroke-width: 1.25px; stroke: rgb(255, 255, 255);"/></g></g><line x1="102" y1="276" x2="102" y2="316" style="stroke-width: 1px; stroke: rgb(0, 45, 156);"/><circle r="4" cx="102" cy="316" style="fill: rgb(0, 45, 156);"/><g transform="translate(102, 276)"><g><circle cx="0" cy="0" r="16" style="fill: rgb(0, 45, 156); stroke-width: 0px; stroke: transparent; paint-order: stroke;"/><line x1="0" y1="-8" x2="0" y2="8" style="stroke-width: 1.25px; stroke: rgb(255, 255, 255);"/><line x1="8" y1="0" x2="-8" y2="0" style="stroke-width: 1.25px; stroke: rgb(255, 255, 255);"/></g></g><line x1="102" y1="356" x2="102" y2="396" style="stroke-width: 1px; stroke: rgb(0, 45, 156);"/><circle r="4" cx="102" cy="396" style="fill: rgb(0, 45, 156);"/><g transform="translate(102, 356)"><g><circle cx="0" cy="0" r="16" style="fill: rgb(0, 45, 156); stroke-width: 0px; stroke: transparent; paint-order: stroke;"/><line x1="0" y1="-8" x2="0" y2="8" style="stroke-width: 1.25px; stroke: rgb(255, 255, 255);"/><line x1="8" y1="0" x2="-8" y2="0" style="stroke-width: 1.25px; stroke: rgb(255, 255, 255);"/></g></g><line x1="142" y1="396" x2="142" y2="436" style="stroke-width: 1px; stroke: rgb(0, 45, 156);"/><circle r="4" cx="142" cy="396" style="fill: rgb(0, 45, 156);"/><g transform="translate(142, 436)"><g><circle cx="0" cy="0" r="16" style="fill: rgb(0, 45, 156); stroke-width: 0px; stroke: transparent; paint-order: stroke;"/><line x1="0" y1="-8" x2="0" y2="8" style="stroke-width: 1.25px; stroke: rgb(255, 255, 255);"/><line x1="8" y1="0" x2="-8" y2="0" style="stroke-width: 1.25px; stroke: rgb(255, 255, 255);"/></g></g><line x1="182" y1="316" x2="182" y2="396" style="stroke-width: 1px; stroke: rgb(0, 45, 156);"/><circle r="4" cx="182" cy="316" style="fill: rgb(0, 45, 156);"/><g transform="translate(182, 396)"><g><circle cx="0" cy="0" r="16" style="fill: rgb(0, 45, 156); stroke-width: 0px; stroke: transparent; paint-order: stroke;"/><line x1="0" y1="-8" x2="0" y2="8" style="stroke-width: 1.25px; stroke: rgb(255, 255, 255);"/><line x1="8" y1="0" x2="-8" y2="0" style="stroke-width: 1.25px; stroke: rgb(255, 255, 255);"/></g></g><line x1="222" y1="236" x2="222" y2="316" style="stroke-width: 1px; stroke: rgb(0, 45, 156);"/><circle r="4" cx="222" cy="236" style="fill: rgb(0, 45, 156);"/><g transform="translate(222, 316)"><g><circle cx="0" cy="0" r="16" style="fill: rgb(0, 45, 156); stroke-width: 0px; stroke: transparent; paint-order: stroke;"/><line x1="0" y1="-8" x2="0" y2="8" style="stroke-width: 1.25px; stroke: rgb(255, 255, 255);"/><line x1="8" y1="0" x2="-8" y2="0" style="stroke-width: 1.25px; stroke: rgb(255, 255, 255);"/></g></g><line x1="262" y1="156" x2="262" y2="236" style="stroke-width: 1px; stroke: rgb(0, 45, 156);"/><circle r="4" cx="262" cy="156" style="fill: rgb(0, 45, 156);"/><g transform="translate(262, 236)"><g><circle cx="0" cy="0" r="16" style="fill: rgb(0, 45, 156); stroke-width: 0px; stroke: transparent; paint-order: stroke;"/><line x1="0" y1="-8" x2="0" y2="8" style="stroke-width: 1.25px; stroke: rgb(255, 255, 255);"/><line x1="8" y1="0" x2="-8" y2="0" style="stroke-width: 1.25px; stroke: rgb(255, 255, 255);"/></g></g><line x1="302" y1="36" x2="302" y2="156" style="stroke-width: 1px; stroke: rgb(0, 45, 156);"/><circle r="4" cx="302" cy="76" style="fill: rgb(0, 45, 156);"/><circle r="4" cx="302" cy="36" style="fill: rgb(0, 45, 156);"/><g transform="translate(302, 156)"><g><circle cx="0" cy="0" r="16" style="fill: rgb(0, 45, 156); stroke-width: 0px; stroke: transparent; paint-order: stroke;"/><line x1="0" y1="-8" x2="0" y2="8" style="stroke-width: 1.25px; stroke: rgb(255, 255, 255);"/><line x1="8" y1="0" x2="-8" y2="0" style="stroke-width: 1.25px; stroke: rgb(255, 255, 255);"/></g></g><line x1="342" y1="116" x2="342" y2="236" style="stroke-width: 1px; stroke: rgb(0, 45, 156);"/><circle r="4" cx="342" cy="156" style="fill: rgb(0, 45, 156);"/><circle r="4" cx="342" cy="116" style="fill: rgb(0, 45, 156);"/><g transform="translate(342, 236)"><g><circle cx="0" cy="0" r="16" style="fill: rgb(0, 45, 156); stroke-width: 0px; stroke: transparent; paint-order: stroke;"/><line x1="0" y1="-8" x2="0" y2="8" style="stroke-width: 1.25px; stroke: rgb(255, 255, 255);"/><line x1="8" y1="0" x2="-8" y2="0" style="stroke-width: 1.25px; stroke: rgb(255, 255, 255);"/></g></g><line x1="382" y1="196" x2="382" y2="316" style="stroke-width: 1px; stroke: rgb(0, 45, 156);"/><circle r="4" cx="382" cy="236" style="fill: rgb(0, 45, 156);"/><circle r="4" cx="382" cy="196" style="fill: rgb(0, 45, 156);"/><g transform="translate(382, 316)"><g><circle cx="0" cy="0" r="16" style="fill: rgb(0, 45, 156); stroke-width: 0px; stroke: transparent; paint-order: stroke;"/><line x1="0" y1="-8" x2="0" y2="8" style="stroke-width: 1.25px; stroke: rgb(255, 255, 255);"/><line x1="8" y1="0" x2="-8" y2="0" style="stroke-width: 1.25px; stroke: rgb(255, 255, 255);"/></g></g><line x1="422" y1="276" x2="422" y2="396" style="stroke-width: 1px; stroke: rgb(0, 45, 156);"/><circle r="4" cx="422" cy="316" style="fill: rgb(0, 45, 156);"/><circle r="4" cx="422" cy="276" style="fill: rgb(0, 45, 156);"/><g transform="translate(422, 396)"><g><circle cx="0" cy="0" r="16" style="fill: rgb(0, 45, 156); stroke-width: 0px; stroke: transparent; paint-order: stroke;"/><line x1="0" y1="-8" x2="0" y2="8" style="stroke-width: 1.25px; stroke: rgb(255, 255, 255);"/><line x1="8" y1="0" x2="-8" y2="0" style="stroke-width: 1.25px; stroke: rgb(255, 255, 255);"/></g></g><g><rect x="446" y="340" width="41" height="112" style="fill: rgb(57, 57, 57); stroke-width: 0px; stroke: transparent; paint-order: stroke;"/><text x="466.5" y="396" style="font-family: IBM Plex Sans, sans-serif; font-size: 16px; font-style: normal; fill: rgb(255, 255, 255); font-weight: 400; text-anchor: middle;" dy=".3em">pG</text><text x="450" y="356" style="font-family: IBM Plex Mono, monospace; font-size: 8px; font-style: normal; fill: rgb(255, 255, 255); font-weight: 400;" dy=".3em">a</text><text x="450" y="396" style="font-family: IBM Plex Mono, monospace; font-size: 8px; font-style: normal; fill: rgb(255, 255, 255); font-weight: 400;" dy=".3em">b</text><text x="450" y="436" style="font-family: IBM Plex Mono, monospace; font-size: 8px; font-style: normal; fill: rgb(255, 255, 255); font-weight: 400;" dy=".3em">c</text></g><g><rect x="495" y="260" width="41" height="152" style="fill: rgb(57, 57, 57); stroke-width: 0px; stroke: transparent; paint-order: stroke;"/><text x="515.5" y="336" style="font-family: IBM Plex Sans, sans-serif; font-size: 16px; font-style: normal; fill: rgb(255, 255, 255); font-weight: 400; text-anchor: middle;" dy=".3em">pG</text><text x="499" y="276" style="font-family: IBM Plex Mono, monospace; font-size: 8px; font-style: normal; fill: rgb(255, 255, 255); font-weight: 400;" dy=".3em">a</text><text x="499" y="316" style="font-family: IBM Plex Mono, monospace; font-size: 8px; font-style: normal; fill: rgb(255, 255, 255); font-weight: 400;" dy=".3em">b</text><text x="499" y="396" style="font-family: IBM Plex Mono, monospace; font-size: 8px; font-style: normal; fill: rgb(255, 255, 255); font-weight: 400;" dy=".3em">c</text></g><g><rect x="544" y="180" width="41" height="152" style="fill: rgb(57, 57, 57); stroke-width: 0px; stroke: transparent; paint-order: stroke;"/><text x="564.5" y="256" style="font-family: IBM Plex Sans, sans-serif; font-size: 16px; font-style: normal; fill: rgb(255, 255, 255); font-weight: 400; text-anchor: middle;" dy=".3em">pG</text><text x="548" y="196" style="font-family: IBM Plex Mono, monospace; font-size: 8px; font-style: normal; fill: rgb(255, 255, 255); font-weight: 400;" dy=".3em">a</text><text x="548" y="236" style="font-family: IBM Plex Mono, monospace; font-size: 8px; font-style: normal; fill: rgb(255, 255, 255); font-weight: 400;" dy=".3em">b</text><text x="548" y="316" style="font-family: IBM Plex Mono, monospace; font-size: 8px; font-style: normal; fill: rgb(255, 255, 255); font-weight: 400;" dy=".3em">c</text></g><g><rect x="593" y="100" width="41" height="152" style="fill: rgb(57, 57, 57); stroke-width: 0px; stroke: transparent; paint-order: stroke;"/><text x="613.5" y="176" style="font-family: IBM Plex Sans, sans-serif; font-size: 16px; font-style: normal; fill: rgb(255, 255, 255); font-weight: 400; text-anchor: middle;" dy=".3em">pG</text><text x="597" y="116" style="font-family: IBM Plex Mono, monospace; font-size: 8px; font-style: normal; fill: rgb(255, 255, 255); font-weight: 400;" dy=".3em">a</text><text x="597" y="156" style="font-family: IBM Plex Mono, monospace; font-size: 8px; font-style: normal; fill: rgb(255, 255, 255); font-weight: 400;" dy=".3em">b</text><text x="597" y="236" style="font-family: IBM Plex Mono, monospace; font-size: 8px; font-style: normal; fill: rgb(255, 255, 255); font-weight: 400;" dy=".3em">c</text></g><g><rect x="642" y="20" width="41" height="152" style="fill: rgb(57, 57, 57); stroke-width: 0px; stroke: transparent; paint-order: stroke;"/><text x="662.5" y="96" style="font-family: IBM Plex Sans, sans-serif; font-size: 16px; font-style: normal; fill: rgb(255, 255, 255); font-weight: 400; text-anchor: middle;" dy=".3em">pG</text><text x="646" y="36" style="font-family: IBM Plex Mono, monospace; font-size: 8px; font-style: normal; fill: rgb(255, 255, 255); font-weight: 400;" dy=".3em">a</text><text x="646" y="76" style="font-family: IBM Plex Mono, monospace; font-size: 8px; font-style: normal; fill: rgb(255, 255, 255); font-weight: 400;" dy=".3em">b</text><text x="646" y="156" style="font-family: IBM Plex Mono, monospace; font-size: 8px; font-style: normal; fill: rgb(255, 255, 255); font-weight: 400;" dy=".3em">c</text></g><line x1="707" y1="156" x2="707" y2="236" style="stroke-width: 1px; stroke: rgb(0, 45, 156);"/><circle r="4" cx="707" cy="156" style="fill: rgb(0, 45, 156);"/><g transform="translate(707, 236)"><g><circle cx="0" cy="0" r="16" style="fill: rgb(0, 45, 156); stroke-width: 0px; stroke: transparent; paint-order: stroke;"/><line x1="0" y1="-8" x2="0" y2="8" style="stroke-width: 1.25px; stroke: rgb(255, 255, 255);"/><line x1="8" y1="0" x2="-8" y2="0" style="stroke-width: 1.25px; stroke: rgb(255, 255, 255);"/></g></g><line x1="747" y1="236" x2="747" y2="316" style="stroke-width: 1px; stroke: rgb(0, 45, 156);"/><circle r="4" cx="747" cy="236" style="fill: rgb(0, 45, 156);"/><g transform="translate(747, 316)"><g><circle cx="0" cy="0" r="16" style="fill: rgb(0, 45, 156); stroke-width: 0px; stroke: transparent; paint-order: stroke;"/><line x1="0" y1="-8" x2="0" y2="8" style="stroke-width: 1.25px; stroke: rgb(255, 255, 255);"/><line x1="8" y1="0" x2="-8" y2="0" style="stroke-width: 1.25px; stroke: rgb(255, 255, 255);"/></g></g><line x1="787" y1="316" x2="787" y2="396" style="stroke-width: 1px; stroke: rgb(0, 45, 156);"/><circle r="4" cx="787" cy="316" style="fill: rgb(0, 45, 156);"/><g transform="translate(787, 396)"><g><circle cx="0" cy="0" r="16" style="fill: rgb(0, 45, 156); stroke-width: 0px; stroke: transparent; paint-order: stroke;"/><line x1="0" y1="-8" x2="0" y2="8" style="stroke-width: 1.25px; stroke: rgb(255, 255, 255);"/><line x1="8" y1="0" x2="-8" y2="0" style="stroke-width: 1.25px; stroke: rgb(255, 255, 255);"/></g></g><g transform="translate(827, 36)"><line x1="0" y1="-16" x2="0" y2="-2" style="stroke-width: 1px; stroke: rgb(22, 22, 22);"/><line x1="0" y1="2" x2="0" y2="16" style="stroke-width: 1px; stroke: rgb(22, 22, 22);"/></g><g transform="translate(827, 76)"><line x1="0" y1="-16" x2="0" y2="-2" style="stroke-width: 1px; stroke: rgb(22, 22, 22);"/><line x1="0" y1="2" x2="0" y2="16" style="stroke-width: 1px; stroke: rgb(22, 22, 22);"/></g><g transform="translate(827, 116)"><line x1="0" y1="-16" x2="0" y2="-2" style="stroke-width: 1px; stroke: rgb(22, 22, 22);"/><line x1="0" y1="2" x2="0" y2="16" style="stroke-width: 1px; stroke: rgb(22, 22, 22);"/></g><g transform="translate(827, 156)"><line x1="0" y1="-16" x2="0" y2="-2" style="stroke-width: 1px; stroke: rgb(22, 22, 22);"/><line x1="0" y1="2" x2="0" y2="16" style="stroke-width: 1px; stroke: rgb(22, 22, 22);"/></g><g transform="translate(827, 196)"><line x1="0" y1="-16" x2="0" y2="-2" style="stroke-width: 1px; stroke: rgb(22, 22, 22);"/><line x1="0" y1="2" x2="0" y2="16" style="stroke-width: 1px; stroke: rgb(22, 22, 22);"/></g><g transform="translate(827, 236)"><line x1="0" y1="-16" x2="0" y2="-2" style="stroke-width: 1px; stroke: rgb(22, 22, 22);"/><line x1="0" y1="2" x2="0" y2="16" style="stroke-width: 1px; stroke: rgb(22, 22, 22);"/></g><g transform="translate(827, 276)"><line x1="0" y1="-16" x2="0" y2="-2" style="stroke-width: 1px; stroke: rgb(22, 22, 22);"/><line x1="0" y1="2" x2="0" y2="16" style="stroke-width: 1px; stroke: rgb(22, 22, 22);"/></g><g transform="translate(827, 316)"><line x1="0" y1="-16" x2="0" y2="-2" style="stroke-width: 1px; stroke: rgb(22, 22, 22);"/><line x1="0" y1="2" x2="0" y2="16" style="stroke-width: 1px; stroke: rgb(22, 22, 22);"/></g><g transform="translate(827, 356)"><line x1="0" y1="-16" x2="0" y2="-2" style="stroke-width: 1px; stroke: rgb(22, 22, 22);"/><line x1="0" y1="2" x2="0" y2="16" style="stroke-width: 1px; stroke: rgb(22, 22, 22);"/></g><g transform="translate(827, 396)"><line x1="0" y1="-16" x2="0" y2="-2" style="stroke-width: 1px; stroke: rgb(22, 22, 22);"/><line x1="0" y1="2" x2="0" y2="16" style="stroke-width: 1px; stroke: rgb(22, 22, 22);"/></g><g transform="translate(827, 436)"><line x1="0" y1="-16" x2="0" y2="-2" style="stroke-width: 1px; stroke: rgb(22, 22, 22);"/><line x1="0" y1="2" x2="0" y2="16" style="stroke-width: 1px; stroke: rgb(22, 22, 22);"/></g><line x1="867" y1="116" x2="867" y2="156" style="stroke-width: 1px; stroke: rgb(0, 45, 156);"/><circle r="4" cx="867" cy="156" style="fill: rgb(0, 45, 156);"/><g transform="translate(867, 116)"><g><circle cx="0" cy="0" r="16" style="fill: rgb(0, 45, 156); stroke-width: 0px; stroke: transparent; paint-order: stroke;"/><line x1="0" y1="-8" x2="0" y2="8" style="stroke-width: 1.25px; stroke: rgb(255, 255, 255);"/><line x1="8" y1="0" x2="-8" y2="0" style="stroke-width: 1.25px; stroke: rgb(255, 255, 255);"/></g></g><line x1="867" y1="196" x2="867" y2="236" style="stroke-width: 1px; stroke: rgb(0, 45, 156);"/><circle r="4" cx="867" cy="236" style="fill: rgb(0, 45, 156);"/><g transform="translate(867, 196)"><g><circle cx="0" cy="0" r="16" style="fill: rgb(0, 45, 156); stroke-width: 0px; stroke: transparent; paint-order: stroke;"/><line x1="0" y1="-8" x2="0" y2="8" style="stroke-width: 1.25px; stroke: rgb(255, 255, 255);"/><line x1="8" y1="0" x2="-8" y2="0" style="stroke-width: 1.25px; stroke: rgb(255, 255, 255);"/></g></g><line x1="867" y1="276" x2="867" y2="316" style="stroke-width: 1px; stroke: rgb(0, 45, 156);"/><circle r="4" cx="867" cy="316" style="fill: rgb(0, 45, 156);"/><g transform="translate(867, 276)"><g><circle cx="0" cy="0" r="16" style="fill: rgb(0, 45, 156); stroke-width: 0px; stroke: transparent; paint-order: stroke;"/><line x1="0" y1="-8" x2="0" y2="8" style="stroke-width: 1.25px; stroke: rgb(255, 255, 255);"/><line x1="8" y1="0" x2="-8" y2="0" style="stroke-width: 1.25px; stroke: rgb(255, 255, 255);"/></g></g><line x1="867" y1="356" x2="867" y2="396" style="stroke-width: 1px; stroke: rgb(0, 45, 156);"/><circle r="4" cx="867" cy="396" style="fill: rgb(0, 45, 156);"/><g transform="translate(867, 356)"><g><circle cx="0" cy="0" r="16" style="fill: rgb(0, 45, 156); stroke-width: 0px; stroke: transparent; paint-order: stroke;"/><line x1="0" y1="-8" x2="0" y2="8" style="stroke-width: 1.25px; stroke: rgb(255, 255, 255);"/><line x1="8" y1="0" x2="-8" y2="0" style="stroke-width: 1.25px; stroke: rgb(255, 255, 255);"/></g></g></g></svg>